<?xml version="1.0" encoding="UTF-8"?>
<svg version="1.1" xmlns="http://www.w3.org/2000/svg" width="500" height="500">
<path d="M0 0 C2.12472576 -0.05386629 4.24983652 -0.09273071 6.375 -0.125 C7.55835938 -0.14820313 8.74171875 -0.17140625 9.9609375 -0.1953125 C13 0 13 0 15 2 C15.63942505 4.10313263 16.18339277 6.23539556 16.6875 8.375 C17.03855893 9.83345464 17.3901652 11.29177759 17.7421875 12.75 C17.9390918 13.575 18.13599609 14.4 18.33886719 15.25 C19.63289124 20.63252843 20.97376376 26.00344999 22.3125 31.375 C22.60737305 32.56134033 22.90224609 33.74768066 23.20605469 34.9699707 C25.62792989 44.65422679 28.19978125 54.29392508 30.86645508 63.91357422 C31.28640747 65.44328857 31.28640747 65.44328857 31.71484375 67.00390625 C31.96355225 67.89924072 32.21226074 68.7945752 32.46850586 69.71704102 C33 72 33 72 33 75 C34.19238281 74.91621094 35.38476562 74.83242188 36.61328125 74.74609375 C38.17966708 74.64291864 39.74607451 74.54007111 41.3125 74.4375 C42.49102539 74.35338867 42.49102539 74.35338867 43.69335938 74.26757812 C44.8293457 74.19506836 44.8293457 74.19506836 45.98828125 74.12109375 C47.03302612 74.05039673 47.03302612 74.05039673 48.09887695 73.97827148 C50 74 50 74 53 75 C53.0812915 74.45029541 53.16258301 73.90059082 53.24633789 73.33422852 C54.78073197 63.99841368 57.26504612 54.91094428 59.68579102 45.77514648 C60.43636787 42.94177371 61.1806103 40.10679539 61.92382812 37.27148438 C62.40588022 35.4400068 62.88829011 33.60862335 63.37109375 31.77734375 C63.58994736 30.94476547 63.80880096 30.11218719 64.0342865 29.25437927 C68.47406455 12.52593545 68.47406455 12.52593545 70 11 C72.01964199 10.92755947 74.04167124 10.91622812 76.0625 10.9375 C77.16722656 10.94652344 78.27195312 10.95554688 79.41015625 10.96484375 C80.26480469 10.97644531 81.11945313 10.98804688 82 11 C82.66 8.03 83.32 5.06 84 2 C83.01 1.505 83.01 1.505 82 1 C133.15 1 184.3 1 237 1 C237 4.96 237 8.92 237 13 C224.46 13.33 211.92 13.66 199 14 C204.94 14.33 210.88 14.66 217 15 C219.60341656 17.60341656 218 22.31821299 218 26 C208.1 26.495 208.1 26.495 198 27 C198 27.66 198 28.32 198 29 C198.61931396 29.0093457 199.23862793 29.01869141 199.87670898 29.02832031 C202.73106035 29.08259263 205.58387108 29.16612337 208.4375 29.25 C209.89833008 29.27126953 209.89833008 29.27126953 211.38867188 29.29296875 C220.11675263 29.58487781 227.60235789 31.78514767 234 38 C238.69264309 44.25685745 239.66496651 49.32825678 239 57 C237.71664111 63.51467773 235.03991152 68.62417094 230 73 C224.71848199 76.08918978 219.97725925 76.74305965 214 76 C210.32215659 75.00981139 208.64161685 74.01054654 206.59375 70.78515625 C204.29350974 66.33847086 202.39408468 61.81592889 201 57 C199.35 57 197.7 57 196 57 C195.54194133 63.52733599 196.45890748 66.52740247 200 72 C200.33 72.99 200.66 73.98 201 75 C198.54617866 76.22691067 196.80015897 76.20175931 194.0625 76.25 C193.18722656 76.27578125 192.31195313 76.3015625 191.41015625 76.328125 C188.51399372 75.93383383 187.75445712 75.28611079 186 73 C183.11681883 67.66077561 182.0744902 63.05221014 183 57 C184.34675138 52.6934391 186.29430868 49.72378597 189.4375 46.5 C194.80125467 44.24157698 200.27046742 44.02476041 206 45 C210.35752076 47.63695462 211.95777591 50.36664014 213.75 55.0625 C214.36101562 56.62677734 214.36101562 56.62677734 214.984375 58.22265625 C215.68486096 60.13821592 216.35501555 62.06504664 217 64 C220.59346057 63.75499132 222.55416683 63.363706 225.375 61.0625 C227.70984869 56.66220824 227.88181611 52.8773015 227 48 C225.69135382 45.05102311 224.61256896 44.1771408 222 42 C214.88625239 39.7049883 208.02464512 39.67112801 200.6015625 39.69726562 C196.22161271 39.59915981 192.9402013 39.45790516 189.375 36.7421875 C187 34 187 34 186.4140625 31.68359375 C186.48367188 30.94238281 186.55328125 30.20117188 186.625 29.4375 C186.70621094 28.32181641 186.70621094 28.32181641 186.7890625 27.18359375 C186.85867188 26.46300781 186.92828125 25.74242187 187 25 C187.36980013 20.95377498 187.36980013 20.95377498 185 18 C184.875 15.3125 184.875 15.3125 185 13 C183.35 13 181.7 13 180 13 C180 33.79 180 54.58 180 76 C175.38 76 170.76 76 166 76 C166 55.21 166 34.42 166 13 C164.35 13 162.7 13 161 13 C161 33.79 161 54.58 161 76 C156.38 76 151.76 76 147 76 C145.40857152 72.81714304 145.99991716 69.4129558 146.12109375 65.9296875 C146.14470474 65.13345978 146.16831573 64.33723206 146.19264221 63.51687622 C146.26932211 60.96940471 146.35332761 58.4222339 146.4375 55.875 C146.49071637 54.14975438 146.5434568 52.42449402 146.59570312 50.69921875 C146.72494307 46.46595478 146.86075419 42.23294618 147 38 C142.38 38 137.76 38 133 38 C133.12375 39.959375 133.2475 41.91875 133.375 43.9375 C133.34950724 49.79446133 132.5931967 53.5029654 128.953125 58.12109375 C123.45311386 63.41210447 117.94731406 65.27678154 110.375 65.3125 C108.58204888 65.23346563 106.78935153 65.13835192 105 65 C103.88176185 67.23647631 103.80603939 68.64891529 103.68359375 71.1328125 C103.64169922 71.93847656 103.59980469 72.74414062 103.55664062 73.57421875 C103.51732422 74.41597656 103.47800781 75.25773437 103.4375 76.125 C103.37272461 77.39923828 103.37272461 77.39923828 103.30664062 78.69921875 C103.20045764 80.79928223 103.09971503 82.89961948 103 85 C98.38 85 93.76 85 89 85 C89 69.82 89 54.64 89 39 C93.95 39 98.9 39 104 39 C104.16276042 41.24609375 104.32552083 43.4921875 104.48828125 45.73828125 C105.09637581 48.42596638 105.79242641 49.37905436 108 51 C112.70823089 51.56503726 112.70823089 51.56503726 116.875 49.6875 C118.84460579 46.73309132 119.15429903 44.00134922 119.31640625 40.55078125 C119.35451416 39.78677002 119.39262207 39.02275879 119.43188477 38.2355957 C119.47498779 37.27097412 119.51809082 36.30635254 119.5625 35.3125 C119.706875 32.239375 119.85125 29.16625 120 26 C128.91 25.67 137.82 25.34 147 25 C147 21.04 147 17.08 147 13 C126.87 13 106.74 13 86 13 C86.020625 19.868125 86.04125 26.73625 86.0625 33.8125 C86.08784853 50.90606745 85.81751891 67.92488612 85 85 C67.79127433 85.85347623 50.6176318 86.15880894 33.38867188 86.13037109 C30.75318232 86.12673091 28.11789071 86.12590203 25.48242188 86.13037109 C21.62367708 86.13649758 17.76499733 86.1358221 13.90625 86.1328125 C12.72115845 86.13483673 11.53606689 86.13686096 10.31506348 86.13894653 C9.23462769 86.13579437 8.15419189 86.13264221 7.04101562 86.12939453 C6.08827759 86.12859894 5.13553955 86.12780334 4.15393066 86.12698364 C2 86 2 86 1 85 C0.87490166 82.35348657 0.81394005 79.73177781 0.79467773 77.08374023 C0.78477814 76.25454071 0.77487854 75.42534119 0.76467896 74.5710144 C0.7329688 71.81690371 0.70826912 69.06277574 0.68359375 66.30859375 C0.66303243 64.40429727 0.64203618 62.50000545 0.62062073 60.59571838 C0.56531515 55.57337194 0.51594344 50.55098373 0.46777344 45.52856445 C0.41762021 40.40767685 0.36190197 35.2868502 0.30664062 30.16601562 C0.19895533 20.1107291 0.09753355 10.05538975 0 0 Z " fill="#6A72B4" transform="translate(130,207)"/>
<path d="M0 0 C2.12472576 -0.05386629 4.24983652 -0.09273071 6.375 -0.125 C7.55835938 -0.14820313 8.74171875 -0.17140625 9.9609375 -0.1953125 C13 0 13 0 15 2 C15.63942505 4.10313263 16.18339277 6.23539556 16.6875 8.375 C17.03855893 9.83345464 17.3901652 11.29177759 17.7421875 12.75 C17.9390918 13.575 18.13599609 14.4 18.33886719 15.25 C19.63289124 20.63252843 20.97376376 26.00344999 22.3125 31.375 C22.60737305 32.56134033 22.90224609 33.74768066 23.20605469 34.9699707 C25.62792989 44.65422679 28.19978125 54.29392508 30.86645508 63.91357422 C31.28640747 65.44328857 31.28640747 65.44328857 31.71484375 67.00390625 C31.96355225 67.89924072 32.21226074 68.7945752 32.46850586 69.71704102 C33 72 33 72 33 75 C34.19238281 74.91621094 35.38476562 74.83242188 36.61328125 74.74609375 C38.17966708 74.64291864 39.74607451 74.54007111 41.3125 74.4375 C42.49102539 74.35338867 42.49102539 74.35338867 43.69335938 74.26757812 C44.8293457 74.19506836 44.8293457 74.19506836 45.98828125 74.12109375 C47.03302612 74.05039673 47.03302612 74.05039673 48.09887695 73.97827148 C50 74 50 74 53 75 C53.0812915 74.45029541 53.16258301 73.90059082 53.24633789 73.33422852 C54.78073197 63.99841368 57.26504612 54.91094428 59.68579102 45.77514648 C60.43636787 42.94177371 61.1806103 40.10679539 61.92382812 37.27148438 C62.40588022 35.4400068 62.88829011 33.60862335 63.37109375 31.77734375 C63.58994736 30.94476547 63.80880096 30.11218719 64.0342865 29.25437927 C68.47406455 12.52593545 68.47406455 12.52593545 70 11 C72.01964199 10.92755947 74.04167124 10.91622812 76.0625 10.9375 C77.16722656 10.94652344 78.27195312 10.95554688 79.41015625 10.96484375 C80.26480469 10.97644531 81.11945313 10.98804688 82 11 C82.66 8.03 83.32 5.06 84 2 C83.01 1.505 83.01 1.505 82 1 C82.99 1 83.98 1 85 1 C85 4.63 85 8.26 85 12 C105.46 12 125.92 12 147 12 C147 12.33 147 12.66 147 13 C126.87 13 106.74 13 86 13 C86.020625 19.868125 86.04125 26.73625 86.0625 33.8125 C86.08784853 50.90606745 85.81751891 67.92488612 85 85 C67.79127433 85.85347623 50.6176318 86.15880894 33.38867188 86.13037109 C30.75318232 86.12673091 28.11789071 86.12590203 25.48242188 86.13037109 C21.62367708 86.13649758 17.76499733 86.1358221 13.90625 86.1328125 C12.72115845 86.13483673 11.53606689 86.13686096 10.31506348 86.13894653 C9.23462769 86.13579437 8.15419189 86.13264221 7.04101562 86.12939453 C6.08827759 86.12859894 5.13553955 86.12780334 4.15393066 86.12698364 C2 86 2 86 1 85 C0.87490166 82.35348657 0.81394005 79.73177781 0.79467773 77.08374023 C0.78477814 76.25454071 0.77487854 75.42534119 0.76467896 74.5710144 C0.7329688 71.81690371 0.70826912 69.06277574 0.68359375 66.30859375 C0.66303243 64.40429727 0.64203618 62.50000545 0.62062073 60.59571838 C0.56531515 55.57337194 0.51594344 50.55098373 0.46777344 45.52856445 C0.41762021 40.40767685 0.36190197 35.2868502 0.30664062 30.16601562 C0.19895533 20.1107291 0.09753355 10.05538975 0 0 Z " fill="#EEDB3F" transform="translate(130,207)"/>
<path d="M0 0 C50.16 0 100.32 0 152 0 C152 3.96 152 7.92 152 12 C139.46 12.33 126.92 12.66 114 13 C119.94 13.33 125.88 13.66 132 14 C134.60341656 16.60341656 133 21.31821299 133 25 C123.1 25.495 123.1 25.495 113 26 C113 26.66 113 27.32 113 28 C113.61931396 28.0093457 114.23862793 28.01869141 114.87670898 28.02832031 C117.73106035 28.08259263 120.58387108 28.16612337 123.4375 28.25 C124.89833008 28.27126953 124.89833008 28.27126953 126.38867188 28.29296875 C135.11675263 28.58487781 142.60235789 30.78514767 149 37 C153.69264309 43.25685745 154.66496651 48.32825678 154 56 C152.71664111 62.51467773 150.03991152 67.62417094 145 72 C139.71848199 75.08918978 134.97725925 75.74305965 129 75 C125.32215659 74.00981139 123.64161685 73.01054654 121.59375 69.78515625 C119.29350974 65.33847086 117.39408468 60.81592889 116 56 C114.35 56 112.7 56 111 56 C110.54194133 62.52733599 111.45890748 65.52740247 115 71 C115.33 71.99 115.66 72.98 116 74 C113.54617866 75.22691067 111.80015897 75.20175931 109.0625 75.25 C108.18722656 75.27578125 107.31195313 75.3015625 106.41015625 75.328125 C103.51399372 74.93383383 102.75445712 74.28611079 101 72 C98.11681883 66.66077561 97.0744902 62.05221014 98 56 C99.34675138 51.6934391 101.29430868 48.72378597 104.4375 45.5 C109.80125467 43.24157698 115.27046742 43.02476041 121 44 C125.35752076 46.63695462 126.95777591 49.36664014 128.75 54.0625 C129.36101562 55.62677734 129.36101562 55.62677734 129.984375 57.22265625 C130.68486096 59.13821592 131.35501555 61.06504664 132 63 C135.59346057 62.75499132 137.55416683 62.363706 140.375 60.0625 C142.70984869 55.66220824 142.88181611 51.8773015 142 47 C140.69135382 44.05102311 139.61256896 43.1771408 137 41 C129.88625239 38.7049883 123.02464512 38.67112801 115.6015625 38.69726562 C111.22161271 38.59915981 107.9402013 38.45790516 104.375 35.7421875 C102 33 102 33 101.4140625 30.68359375 C101.48367188 29.94238281 101.55328125 29.20117188 101.625 28.4375 C101.70621094 27.32181641 101.70621094 27.32181641 101.7890625 26.18359375 C101.85867188 25.46300781 101.92828125 24.74242187 102 24 C102.36980013 19.95377498 102.36980013 19.95377498 100 17 C99.875 14.3125 99.875 14.3125 100 12 C98.35 12 96.7 12 95 12 C95 32.79 95 53.58 95 75 C94.67 75 94.34 75 94 75 C94 53.88 94 32.76 94 11 C96.31 11 98.62 11 101 11 C101.0928125 9.88625 101.0928125 9.88625 101.1875 8.75 C102 6 102 6 107 2 C71.69 1.67 36.38 1.34 0 1 C0 0.67 0 0.34 0 0 Z " fill="#B274B0" transform="translate(215,208)"/>
<path d="M0 0 C2.18379332 -0.00218185 4.36707765 -0.02032863 6.55078125 -0.03930664 C7.94140452 -0.04224163 9.3320302 -0.04422572 10.72265625 -0.04516602 C11.98770996 -0.0492749 13.25276367 -0.05338379 14.55615234 -0.05761719 C17.60486517 0.16899788 19.27709502 0.57207109 21.82421875 2.18530273 C21.16421875 2.51530273 20.50421875 2.84530273 19.82421875 3.18530273 C19.01018453 5.34767502 19.01018453 5.34767502 18.37890625 8.02905273 C18.11037842 9.07585205 17.84185059 10.12265137 17.56518555 11.20117188 C17.2794165 12.35093506 16.99364746 13.50069824 16.69921875 14.68530273 C16.39862549 15.86535889 16.09803223 17.04541504 15.78833008 18.26123047 C14.02126048 25.24480187 12.3245716 32.24395727 10.65625 39.25170898 C10.38711792 40.37801224 10.38711792 40.37801224 10.11254883 41.52706909 C9.22806581 45.22986665 8.35149081 48.93417616 7.48974609 52.64233398 C7.16789037 54.00176752 6.84579923 55.36114535 6.5234375 56.72045898 C6.10324341 58.52075562 6.10324341 58.52075562 5.67456055 60.35742188 C4.82421875 63.18530273 4.82421875 63.18530273 2.82421875 65.18530273 C0.37407283 62.73515681 0.13360361 61.13966048 -0.68798828 57.78930664 C-1.10819748 56.09712509 -1.10819748 56.09712509 -1.53689575 54.37075806 C-1.83280609 53.14682343 -2.12871643 51.92288879 -2.43359375 50.66186523 C-2.74150848 49.40900726 -3.04942322 48.15614929 -3.3666687 46.86532593 C-4.01829486 44.21166287 -4.66501017 41.55686608 -5.30810547 38.90112305 C-6.13177675 35.50068536 -6.96578661 32.10289052 -7.8032856 28.70583534 C-8.6015928 25.46319646 -9.39238663 22.21874408 -10.18359375 18.97436523 C-10.48355255 17.75447906 -10.78351135 16.5345929 -11.09255981 15.27774048 C-11.36639496 14.14331512 -11.6402301 13.00888977 -11.92236328 11.84008789 C-12.16503937 10.84240387 -12.40771545 9.84471985 -12.65774536 8.81680298 C-13.17578125 6.18530273 -13.17578125 6.18530273 -13.17578125 2.18530273 C-13.83578125 1.85530273 -14.49578125 1.52530273 -15.17578125 1.18530273 C-10.79564369 -1.00476604 -4.86994215 -0.00054645 0 0 Z " fill="#EEDD47" transform="translate(170.17578125,206.814697265625)"/>
<path d="M0 0 C2.12472576 -0.05386629 4.24983652 -0.09273071 6.375 -0.125 C7.55835938 -0.14820313 8.74171875 -0.17140625 9.9609375 -0.1953125 C13 0 13 0 15 2 C13 3 13 3 2 2 C2 29.06 2 56.12 2 84 C29.06 84 56.12 84 84 84 C84 60.57 84 37.14 84 13 C79.38 13 74.76 13 70 13 C69.731875 14.7325 69.46375 16.465 69.1875 18.25 C67.8332464 26.36591697 66.20220507 34.39476296 63 42 C62.67 42 62.34 42 62 42 C62.57140052 35.02891367 64.01444546 28.69656367 66 22 C66.27328125 21.04738281 66.5465625 20.09476563 66.828125 19.11328125 C68.85638833 12.14361167 68.85638833 12.14361167 70 11 C72.01964199 10.92755947 74.04167124 10.91622812 76.0625 10.9375 C77.16722656 10.94652344 78.27195312 10.95554688 79.41015625 10.96484375 C80.26480469 10.97644531 81.11945313 10.98804688 82 11 C82.66 8.03 83.32 5.06 84 2 C83.01 1.505 83.01 1.505 82 1 C82.99 1 83.98 1 85 1 C85 4.63 85 8.26 85 12 C105.46 12 125.92 12 147 12 C147 12.33 147 12.66 147 13 C126.87 13 106.74 13 86 13 C86.020625 19.868125 86.04125 26.73625 86.0625 33.8125 C86.08784853 50.90606745 85.81751891 67.92488612 85 85 C67.79127433 85.85347623 50.6176318 86.15880894 33.38867188 86.13037109 C30.75318232 86.12673091 28.11789071 86.12590203 25.48242188 86.13037109 C21.62367708 86.13649758 17.76499733 86.1358221 13.90625 86.1328125 C12.72115845 86.13483673 11.53606689 86.13686096 10.31506348 86.13894653 C9.23462769 86.13579437 8.15419189 86.13264221 7.04101562 86.12939453 C6.08827759 86.12859894 5.13553955 86.12780334 4.15393066 86.12698364 C2 86 2 86 1 85 C0.87490166 82.35348657 0.81394005 79.73177781 0.79467773 77.08374023 C0.78477814 76.25454071 0.77487854 75.42534119 0.76467896 74.5710144 C0.7329688 71.81690371 0.70826912 69.06277574 0.68359375 66.30859375 C0.66303243 64.40429727 0.64203618 62.50000545 0.62062073 60.59571838 C0.56531515 55.57337194 0.51594344 50.55098373 0.46777344 45.52856445 C0.41762021 40.40767685 0.36190197 35.2868502 0.30664062 30.16601562 C0.19895533 20.1107291 0.09753355 10.05538975 0 0 Z " fill="#EFEBC1" transform="translate(130,207)"/>
<path d="M0 0 C2.18379332 -0.00218185 4.36707765 -0.02032863 6.55078125 -0.03930664 C7.94140452 -0.04224163 9.3320302 -0.04422572 10.72265625 -0.04516602 C11.98770996 -0.0492749 13.25276367 -0.05338379 14.55615234 -0.05761719 C17.60486517 0.16899788 19.27709502 0.57207109 21.82421875 2.18530273 C21.16421875 2.51530273 20.50421875 2.84530273 19.82421875 3.18530273 C19.09346227 5.49936493 18.42283617 7.83359143 17.82421875 10.18530273 C16.74247713 6.81988435 16.89883706 5.88682951 17.82421875 2.18530273 C7.92421875 2.18530273 -1.97578125 2.18530273 -12.17578125 2.18530273 C-12.50578125 3.50530273 -12.83578125 4.82530273 -13.17578125 6.18530273 C-13.17578125 4.86530273 -13.17578125 3.54530273 -13.17578125 2.18530273 C-13.83578125 1.85530273 -14.49578125 1.52530273 -15.17578125 1.18530273 C-10.79564369 -1.00476604 -4.86994215 -0.00054645 0 0 Z " fill="#F9F6D1" transform="translate(170.17578125,206.814697265625)"/>
<path d="M0 0 C1.96301592 3.50538557 2.95902388 7.13351728 4 11 C4.66 11 5.32 11 6 11 C6.66 8.69 7.32 6.38 8 4 C8.33 4 8.66 4 9 4 C8.5547115 9.27315333 7.91626837 14.01770224 6 19 C2.31037737 16.54025158 2.29370818 15.39786948 1.3125 11.1875 C1.06113281 10.14980469 0.80976563 9.11210937 0.55078125 8.04296875 C0.04963319 5.27421455 -0.10882124 2.80344253 0 0 Z " fill="#F6F1B4" transform="translate(168,253)"/>
<path d="M0 0 C0.66 0.66 1.32 1.32 2 2 C1 3 1 3 -1.28515625 3.09765625 C-2.65994141 3.08025391 -2.65994141 3.08025391 -4.0625 3.0625 C-4.98160156 3.05347656 -5.90070313 3.04445313 -6.84765625 3.03515625 C-7.55792969 3.02355469 -8.26820313 3.01195312 -9 3 C-9 2.34 -9 1.68 -9 1 C-7.54364629 0.77825067 -6.08477044 0.57301302 -4.625 0.375 C-3.40683594 0.20097656 -3.40683594 0.20097656 -2.1640625 0.0234375 C-1.44992187 0.01570313 -0.73578125 0.00796875 0 0 Z " fill="#CBA4C8" transform="translate(328,280)"/>
<path d="" fill="#FEFEFE" transform="translate(0,0)"/>
<path d="" fill="#FFFEFE" transform="translate(0,0)"/>
</svg>
